<svg width="46" height="38" viewBox="0 0 46 38" fill="none" xmlns="http://www.w3.org/2000/svg">
<path d="M31.7481 32.3612C32.8789 31.569 33.1535 30.01 32.3613 28.8792C31.5691 27.7484 30.0101 27.4739 28.8793 28.2661L31.7481 32.3612ZM20.5683 34.9229L20.3232 32.4349L20.3232 32.4349L20.5683 34.9229ZM4.21793 12.877L6.52763 13.8337L6.52763 13.8337L4.21793 12.877ZM11.4577 4.88916L10.2792 2.68436L10.2792 2.68436L11.4577 4.88916ZM22.1214 3.30734L21.6337 5.7593L21.6337 5.7593L22.1214 3.30734ZM31.3682 8.84961L33.3007 7.26363L33.3007 7.26363L31.3682 8.84961ZM32.5 18.9999C32.5 20.3806 33.6193 21.4999 35 21.4999C36.3807 21.4999 37.5 20.3806 37.5 18.9999H32.5ZM30.3137 30.3136C28.8793 28.2661 28.8795 28.2659 28.8797 28.2658C28.8798 28.2657 28.8799 28.2656 28.88 28.2656C28.8802 28.2655 28.8802 28.2654 28.8802 28.2654C28.8801 28.2655 28.8797 28.2658 28.8789 28.2664C28.8773 28.2675 28.8743 28.2696 28.8699 28.2726C28.861 28.2788 28.8466 28.2887 28.8269 28.3023C28.7874 28.3295 28.7266 28.3711 28.6467 28.4251C28.4866 28.5333 28.2502 28.6908 27.9537 28.8821C27.3588 29.2659 26.5317 29.7795 25.6005 30.3011C23.6112 31.4156 21.5874 32.3104 20.3232 32.4349L20.8133 37.4108C23.233 37.1725 26.082 35.7626 28.0443 34.6632C29.0891 34.0779 30.0076 33.5072 30.6644 33.0835C30.9937 32.871 31.2596 32.6939 31.4454 32.5684C31.5384 32.5056 31.6115 32.4556 31.6626 32.4204C31.6881 32.4028 31.7082 32.3889 31.7226 32.379C31.7297 32.374 31.7355 32.37 31.7397 32.367C31.7419 32.3655 31.7436 32.3643 31.745 32.3633C31.7457 32.3628 31.7463 32.3624 31.7469 32.362C31.7471 32.3619 31.7474 32.3616 31.7476 32.3616C31.7478 32.3614 31.7481 32.3612 30.3137 30.3136ZM20.3232 32.4349C17.215 32.741 14.0967 31.9599 11.4998 30.2247L8.72195 34.3821C12.2807 36.76 16.5539 37.8303 20.8133 37.4108L20.3232 32.4349ZM11.4998 30.2247C8.90288 28.4895 6.98795 25.9076 6.08131 22.9187L1.29661 24.3702C2.53905 28.4659 5.1632 32.0042 8.72195 34.3821L11.4998 30.2247ZM6.08131 22.9187C5.17466 19.9299 5.3324 16.7192 6.52763 13.8337L1.90823 11.9203C0.27032 15.8745 0.0541683 20.2744 1.29661 24.3702L6.08131 22.9187ZM6.52763 13.8337C7.72286 10.9481 9.88165 8.56628 12.6361 7.09397L10.2792 2.68436C6.50448 4.70197 3.54615 7.96599 1.90823 11.9203L6.52763 13.8337ZM12.6361 7.09397C15.3906 5.62165 18.5704 5.14998 21.6337 5.7593L22.6092 0.855376C18.4113 0.0203747 14.0539 0.666747 10.2792 2.68436L12.6361 7.09397ZM21.6337 5.7593C24.697 6.36863 27.4542 8.02125 29.4356 10.4356L33.3007 7.26363C30.5854 3.95509 26.807 1.69038 22.6092 0.855376L21.6337 5.7593ZM29.4356 10.4356C31.417 12.8499 32.5 15.8766 32.5 18.9999H37.5C37.5 14.7198 36.0159 10.5722 33.3007 7.26363L29.4356 10.4356Z" fill="white"/>
<path d="M43 16L35 21.5L27 16" stroke="white" stroke-width="5" stroke-linecap="round"/>
</svg>
