<svg width="34" height="34" viewBox="0 0 34 34" fill="none" xmlns="http://www.w3.org/2000/svg">
    <path fill-rule="evenodd" clip-rule="evenodd" d="M29.4491 1L27.6663 2.78278L25.8835 1H24.1157L22.3329 2.78278L20.5502 1H18.7824L16.9996 2.78278L15.2168 1H13.4491L11.6663 2.78278L11.6112 2.72775L11.5355 2.65196L11.4595 2.57606L11.3835 2.50003L11.3074 2.42388L11.1547 2.27121L11.0782 2.19469L11.0015 2.11805L10.9248 2.04127L10.8479 1.96438L10.7708 1.88735L10.6937 1.8102L10.6164 1.73292L10.539 1.65551L10.3838 1.50031L10.306 1.42252L10.2281 1.34459L10.15 1.26654L10.0718 1.18835L9.99352 1.11003L9.91507 1.03158L9.88349 1H8.11573L6.33294 2.78278L4.55016 1H2.78239L5.44906 3.66667L3.66628 5.44945L1.99048 3.77365C2.35784 4.84231 2.79719 6.16211 3.25472 7.62876L3.66627 7.21722L5.44906 9L4.07693 10.3721C4.40623 11.5201 4.72849 12.7115 5.02401 13.9083L5.15817 14.0424L5.44906 14.3333L5.18984 14.5925C5.30426 15.0739 5.41374 15.5549 5.51701 16.0331L6.33294 15.2172L6.36105 15.2453L6.4312 15.3155L6.57133 15.4556L6.6413 15.5256L6.71121 15.5955L6.78106 15.6653L6.85085 15.7351L7.12941 16.0137L7.40706 16.2913L7.47633 16.3606L7.54555 16.4298L7.61471 16.499L7.68383 16.5681L7.95975 16.844L8.0286 16.9129L8.09741 16.9817L8.11572 17L6.33294 18.7828L5.98309 18.4329C6.10916 19.1743 6.21359 19.8975 6.29108 20.5924L6.33294 20.5506L8.11572 22.3333L6.50602 23.943C6.52653 24.6529 6.53556 25.3755 6.53633 26.0873L6.54379 26.0947L6.57295 26.1239L6.6021 26.153L6.63123 26.1822L6.66034 26.2113L6.68943 26.2404L6.71851 26.2695L6.95061 26.5016L7.00849 26.5594L7.06631 26.6173L7.18182 26.7328L7.2395 26.7904L7.26833 26.8193L7.29714 26.8481L7.32594 26.8769L7.35473 26.9057L7.38351 26.9345L7.41228 26.9632L7.46979 27.0207L7.49854 27.0495L7.52727 27.0782L7.55599 27.1069L7.58471 27.1357L7.64211 27.1931L7.6708 27.2217L7.69949 27.2504L7.72816 27.2791L7.75683 27.3078L7.87144 27.4224L7.92871 27.4797L7.98595 27.5369L8.01457 27.5655L8.04318 27.5941L8.07179 27.6227L8.10039 27.6513L8.11572 27.6667L6.49085 29.2915C6.47192 29.9707 6.44922 30.5916 6.42704 31.1231L8.99961 28.5506L9.01494 28.5659L9.12938 28.6803L9.18662 28.7376L9.24389 28.7948L9.3585 28.9094L9.38717 28.9381L9.41584 28.9668L9.47322 29.0242L9.53062 29.0816L9.55934 29.1103L9.58806 29.139L9.70305 29.254L9.73182 29.2828L9.7606 29.3115L9.81819 29.3691L9.847 29.398L9.87583 29.4268L9.93351 29.4845L10.1647 29.7157L10.1937 29.7446L10.2227 29.7736L10.2516 29.8026L10.2807 29.8316L10.3387 29.8896L10.3678 29.9187L10.3968 29.9478L10.4259 29.9768L10.455 30.0059L10.4841 30.035L10.5132 30.0642L10.6299 30.1809L10.7824 30.3333L8.11572 33H9.88349L11.6663 31.2172L11.6947 31.2456L11.7247 31.2756L11.7547 31.3057L11.7848 31.3357L11.8149 31.3658L11.845 31.3959L11.8752 31.4261L11.9053 31.4563L11.9355 31.4865L11.9658 31.5167L11.996 31.547L12.0263 31.5773L12.0567 31.6076L12.087 31.6379L12.1174 31.6683L12.1478 31.6987L12.1782 31.7292L12.2087 31.7597L12.2392 31.7902L12.2697 31.8207L12.3003 31.8513L12.3309 31.8818L12.3615 31.9125L12.3922 31.9431L12.4229 31.9738L12.4536 32.0045L12.4844 32.0353L12.5151 32.0661L12.546 32.0969L12.5768 32.1278L12.6077 32.1587L12.6386 32.1896L12.6696 32.2205L12.7006 32.2515L12.7316 32.2826L12.7627 32.3136L12.7938 32.3447L12.8249 32.3758L12.8561 32.407L12.8873 32.4382L12.9185 32.4695L12.9498 32.5007L12.9811 32.532L13.0124 32.5634L13.0438 32.5948L13.0753 32.6262L13.1067 32.6577L13.1382 32.6892L13.1698 32.7207L13.2013 32.7523L13.2329 32.7839L13.2646 32.8155L13.2963 32.8472L13.328 32.879L13.3598 32.9107L13.3916 32.9425L13.4234 32.9744L13.4491 33H15.2168L16.9996 31.2172L18.7824 33H20.5502L22.3329 31.2172L22.339 31.2233L22.4101 31.2944L22.4813 31.3655L22.5525 31.4368L22.6238 31.5081L22.6952 31.5795L22.7667 31.651L22.8382 31.7225L22.9098 31.7941L22.9815 31.8658L23.0533 31.9376L23.1251 32.0094L23.197 32.0813L23.269 32.1533L23.3411 32.2254L23.4133 32.2975L23.4855 32.3698L23.5578 32.4421L23.6302 32.5145L23.7027 32.587L23.7752 32.6595L23.8479 32.7322L23.9206 32.8049L23.9934 32.8777L24.0663 32.9506L24.1157 33H25.8835L25.8317 32.9482L25.7577 32.8742L25.6839 32.8004L25.6101 32.7266L25.5364 32.6529L25.4628 32.5793L25.3893 32.5058L25.3159 32.4324L25.2426 32.3591L25.1694 32.2859L25.0962 32.2127L25.0232 32.1397L24.9502 32.0667L24.8773 31.9938L24.8045 31.921L24.7318 31.8483L24.6591 31.7756L24.5866 31.7031L24.5141 31.6306L24.4417 31.5582L24.3694 31.4859L24.2972 31.4137L24.225 31.3415L24.1529 31.2694L24.0809 31.1974L24.009 31.1255L23.9372 31.0537L23.8654 30.9819L23.7937 30.9102L23.7221 30.8386L23.6506 30.7671L23.5791 30.6956L23.5077 30.6242L23.4364 30.5529L23.3652 30.4817L23.294 30.4105L23.2229 30.3394L23.2168 30.3333L24.9996 28.5506L27.5738 31.1248C27.5516 30.5933 27.5289 29.9724 27.51 29.2932L25.8835 27.6667L27.4645 26.0857C27.4653 25.3749 27.4743 24.6534 27.4947 23.9446L25.8835 22.3333L27.6663 20.5506L27.6883 20.5725L27.7096 20.5938C27.7871 19.8979 27.8917 19.1736 28.018 18.431L27.6663 18.7828L27.6417 18.7582L27.5798 18.6963L27.5178 18.6343L27.2701 18.3866L26.7749 17.8914L26.713 17.8295L26.6511 17.7676L26.5892 17.7057L26.5273 17.6438L26.2796 17.3961L26.1558 17.2723L26.0939 17.2104L26.0319 17.1484L25.97 17.0865L25.908 17.0246L25.8835 17L27.6663 15.2172L28.4835 16.0345C28.5868 15.5562 28.6962 15.0752 28.8106 14.5938L28.5502 14.3333L28.9773 13.9062C29.2726 12.7106 29.5945 11.5202 29.9235 10.3734L28.5502 9L30.3329 7.21722L30.7457 7.62997C31.2037 6.16173 31.6435 4.84062 32.0111 3.77125L30.3329 5.44945L28.5502 3.66667L31.2168 1H29.4491ZM24.9996 1.88388L26.7824 3.66667L24.9996 5.44945L23.2168 3.66667L24.9996 1.88388ZM22.3329 4.55055L24.1157 6.33333L22.3329 8.11612L20.5502 6.33333L22.3329 4.55055ZM24.9996 7.21722L23.2168 9L24.9996 10.7828L26.7824 9L24.9996 7.21722ZM19.6663 7.21722L21.4491 9L19.6663 10.7828L19.4562 10.5727L19.3906 10.5072L19.3251 10.4416L19.2594 10.376L19.1937 10.3103L19.128 10.2445L19.0622 10.1787L18.9963 10.1128L18.9303 10.0468L18.7982 9.91471L18.732 9.84856L18.6658 9.78234L18.5995 9.71605L18.5332 9.64969L18.4668 9.58326L18.4003 9.51676L18.3337 9.45019L18.267 9.38356L18.1336 9.25006L18.0667 9.18321L17.9998 9.11628L17.9328 9.04928L17.8835 9L19.6663 7.21722ZM22.3329 9.88388L20.5502 11.6667L20.6253 11.7418L20.6897 11.8062L20.7541 11.8706L20.8827 11.9992L20.9469 12.0634L21.0111 12.1276L21.1393 12.2558L21.2033 12.3198L21.2673 12.3838L21.3951 12.5116L21.459 12.5755L21.5228 12.6393L21.5865 12.703L21.6502 12.7667L21.7139 12.8304L21.7775 12.894L21.8411 12.9576L21.9046 13.0211L21.9681 13.0846L22.0316 13.1481L22.095 13.2115L22.1584 13.2749L22.285 13.4015L22.3329 13.4495L24.1157 11.6667L22.3329 9.88388ZM18.5723 11.4565L18.7824 11.6667L16.9996 13.4495L15.2168 11.6667L16.9996 9.88388L17.0489 9.93317L17.1159 10.0002L17.2497 10.1339L17.3165 10.2007L17.3832 10.2674L17.4498 10.3341L17.5164 10.4006L17.5829 10.4671L17.6493 10.5336L17.7157 10.5999L17.7819 10.6662L17.8482 10.7324L17.9143 10.7986L18.0464 10.9307L18.1124 10.9967L18.1783 11.0626L18.2441 11.1284L18.3099 11.1941L18.4412 11.3255L18.5068 11.391L18.5723 11.4565ZM19.6663 12.5506L17.8835 14.3333L19.6663 16.1161L21.4491 14.3333L21.4011 14.2854L21.3378 14.2221L21.2745 14.1588L21.2111 14.0954L21.1477 14.032L21.0842 13.9685L21.0207 13.905L20.9572 13.8415L20.8936 13.7779L20.83 13.7143L20.7663 13.6506L20.7026 13.5869L20.6389 13.5232L20.5751 13.4594L20.5112 13.3955L20.4473 13.3316L20.3834 13.2677L20.3194 13.2037L20.2554 13.1397L20.1913 13.0756L20.1272 13.0115L19.9988 12.8831L19.9345 12.8188L19.8702 12.7545L19.8058 12.6901L19.7414 12.6257L19.6769 12.5612L19.6663 12.5506ZM14.3329 12.5505L16.1157 14.3333L14.3329 16.1161L12.5502 14.3333L14.3329 12.5505ZM16.9996 15.2172L15.2168 17L16.9996 18.7828L18.7824 17L16.9996 15.2172ZM11.6663 15.2172L13.4491 17L11.6663 18.7828L11.6319 18.7484L11.5646 18.6811L11.4972 18.6138L11.4299 18.5464L11.3625 18.479L11.2951 18.4116L11.2276 18.3441L11.1601 18.2766L11.0926 18.2091L11.0251 18.1416L10.9575 18.074L10.8899 18.0064L10.8223 17.9388L10.7546 17.8711L10.6869 17.8034L10.6191 17.7356L10.5513 17.6679L10.4835 17.6L10.4157 17.5322L10.3478 17.4643L10.2799 17.3964L10.2119 17.3284L9.93964 17.0561L9.88349 17L11.6663 15.2172ZM14.3329 17.8839L12.5502 19.6667L12.5716 19.6881L12.6386 19.7551L12.9063 20.0228L12.9731 20.0897L13.04 20.1565L13.1069 20.2234L13.1737 20.2902L13.4409 20.5574L13.5077 20.6242L13.5744 20.6909L13.6412 20.7577L13.7079 20.8244L14.2415 21.3581L14.3082 21.4247L14.3329 21.4495L16.1157 19.6667L14.3329 17.8839ZM10.6807 19.565L10.7824 19.6667L8.99961 21.4494L7.21682 19.6667L8.99961 17.8839L9.05575 17.94L9.32801 18.2123L9.39598 18.2803L9.46391 18.3482L9.5318 18.4161L9.59965 18.4839L9.66747 18.5517L9.73524 18.6195L9.80299 18.6873L9.8707 18.755L10.006 18.8903L10.0736 18.9579L10.1412 19.0255L10.2087 19.093L10.2763 19.1605L10.4112 19.2955L10.4786 19.3629L10.546 19.4303L10.6134 19.4976L10.6807 19.565ZM11.6663 20.5506L9.88349 22.3333L11.6663 24.1161L13.4491 22.3333L13.4243 22.3086L13.3577 22.2419L13.291 22.1753L13.2243 22.1086L13.1576 22.0419L13.0909 21.9752L13.0242 21.9085L12.9575 21.8418L12.8908 21.775L12.824 21.7083L12.7573 21.6416L12.6905 21.5748L12.6238 21.5081L12.557 21.4413L12.4234 21.3077L12.2898 21.1741L12.223 21.1073L12.1561 21.0404L12.0893 20.9735L12.0224 20.9067L11.7547 20.639L11.6877 20.572L11.6663 20.5506ZM8.99961 23.2172L7.21682 25L7.25233 25.0355L7.31085 25.094L7.34008 25.1233L7.3693 25.1525L7.48598 25.2692L7.51511 25.2983L7.54422 25.3274L7.57332 25.3565L7.6024 25.3856L7.63146 25.4146L7.66051 25.4437L7.71856 25.5017L7.74757 25.5307L7.77655 25.5597L7.80553 25.5887L7.83449 25.6177L8.0657 25.8489L8.12339 25.9066L8.15221 25.9354L8.18102 25.9642L8.23861 26.0218L8.2674 26.0506L8.29617 26.0793L8.41115 26.1943L8.43987 26.2231L8.46859 26.2518L8.52599 26.3092L8.58337 26.3665L8.61205 26.3952L8.64071 26.4239L8.75532 26.5385L8.81259 26.5958L8.86984 26.653L8.98428 26.7675L8.99961 26.7828L10.7824 25L8.99961 23.2172ZM9.89882 27.682L9.88349 27.6667L11.6663 25.8839L13.4491 27.6667L11.6663 29.4495L11.6308 29.4139L11.5138 29.297L11.4554 29.2386L11.4263 29.2094L11.3971 29.1803L11.368 29.1512L11.3389 29.1221L11.3098 29.093L11.2807 29.0639L11.0486 28.8318L10.9907 28.7739L10.9329 28.7161L10.8174 28.6006L10.7597 28.5429L10.7309 28.5141L10.7021 28.4853L10.6733 28.4565L10.6445 28.4277L10.6157 28.3989L10.5869 28.3701L10.5294 28.3126L10.5007 28.2839L10.4719 28.2551L10.4432 28.2264L10.4145 28.1977L10.3571 28.1403L10.3284 28.1116L10.2997 28.0829L10.2711 28.0542L10.2424 28.0256L10.1278 27.911L10.0705 27.8537L10.0133 27.7964L9.98464 27.7678L9.95603 27.7392L9.92743 27.7106L9.89882 27.682ZM14.3329 26.7828L12.5502 25L14.3329 23.2172L14.3577 23.2419L14.4243 23.3086L14.958 23.8423L15.0247 23.909L15.0915 23.9757L15.1582 24.0425L15.225 24.1093L15.4922 24.3765L15.559 24.4433L15.6259 24.5102L15.6927 24.577L15.7596 24.6439L16.0273 24.9116L16.0943 24.9785L16.1157 25L14.3329 26.7828ZM15.2415 22.3581L15.2168 22.3333L16.9996 20.5506L18.7824 22.3333L16.9996 24.1161L16.9781 24.0947L16.9112 24.0277L16.6435 23.76L16.5766 23.6931L16.5098 23.6263L16.4429 23.5594L16.3761 23.4926L16.2425 23.359L16.1089 23.2254L16.0421 23.1586L15.9753 23.0919L15.9086 23.0251L15.8419 22.9584L15.7751 22.8916L15.7084 22.8249L15.6417 22.7582L15.575 22.6915L15.5083 22.6248L15.4416 22.5581L15.3749 22.4914L15.3082 22.4247L15.2415 22.3581ZM19.6663 21.4495L17.8835 19.6667L19.6663 17.8839L21.4491 19.6667L19.6663 21.4495ZM22.3329 18.7828L20.5502 17L22.3329 15.2172L22.409 15.2933L22.5345 15.4187L22.5971 15.4814L22.6597 15.544L22.7223 15.6066L22.7849 15.6692L22.8475 15.7318L22.91 15.7943L23.035 15.9193L23.0974 15.9817L23.1599 16.0441L23.2223 16.1065L23.2846 16.1689L23.4093 16.2936L23.5339 16.4182L23.5962 16.4805L23.6585 16.5427L23.7207 16.605L23.7829 16.6672L23.8451 16.7294L23.9073 16.7916L24.1157 17L22.3329 18.7828ZM23.2302 14.3467L23.2168 14.3333L24.9996 12.5506L26.7824 14.3333L24.9996 16.1161L24.9776 16.0941L24.9155 16.032L24.8533 15.9699L24.7912 15.9077L24.5424 15.6589L24.2932 15.4097L24.0437 15.1602L23.9813 15.0978L23.9189 15.0354L23.8564 14.9729L23.7939 14.9104L23.7314 14.8479L23.6688 14.7853L23.5436 14.6601L23.4183 14.5348L23.3556 14.4722L23.2929 14.4094L23.2302 14.3467ZM27.6663 13.4494L25.8835 11.6667L27.6663 9.88388L29.4491 11.6667L27.6663 13.4494ZM27.6663 4.55055L29.4491 6.33333L27.6663 8.11612L25.8835 6.33333L27.6663 4.55055ZM26.7578 19.6421L26.7824 19.6667L24.9996 21.4495L23.2168 19.6667L24.9996 17.8839L25.0242 17.9084L25.0861 17.9704L25.148 18.0323L25.3958 18.28L25.891 18.7753L25.9529 18.8372L26.0148 18.8991L26.0767 18.961L26.1386 19.0229L26.3862 19.2705L26.5101 19.3944L26.572 19.4563L26.6339 19.5182L26.6959 19.5802L26.7578 19.6421ZM22.3329 20.5506L24.1157 22.3333L22.3329 24.1161L20.5502 22.3333L22.3329 20.5506ZM24.9996 23.2172L23.2168 25L24.9996 26.7828L26.7824 25L24.9996 23.2172ZM19.6663 23.2172L21.4491 25L19.6663 26.7828L19.6101 26.7266L19.3379 26.4544L19.2699 26.3864L19.202 26.3185L19.1341 26.2506L19.0662 26.1827L18.9984 26.1149L18.9306 26.0471L18.8629 25.9794L18.7952 25.9117L18.7275 25.844L18.6599 25.7764L18.5923 25.7088L18.5247 25.6412L18.4571 25.5737L18.3896 25.5061L18.2547 25.3712L18.1873 25.3038L18.1199 25.2364L18.0525 25.169L17.9852 25.1017L17.8835 25L19.6663 23.2172ZM22.3329 25.8839L20.5502 27.6667L20.7061 27.8226L20.9821 28.0986L21.0512 28.1677L21.1203 28.2368L21.1895 28.3061L21.2588 28.3753L21.3282 28.4447L21.3975 28.514L21.5365 28.653L21.815 28.9315L21.8848 29.0013L21.9547 29.0712L22.0246 29.1411L22.0946 29.2111L22.1646 29.2811L22.2347 29.3512L22.3048 29.4213L22.3329 29.4495L24.1157 27.6667L22.3329 25.8839ZM18.7262 27.6105L18.7824 27.6667L16.9996 29.4494L15.2168 27.6667L16.9996 25.8839L17.034 25.9183L17.1013 25.9856L17.1686 26.0529L17.236 26.1203L17.3034 26.1877L17.3708 26.2551L17.4383 26.3225L17.5057 26.39L17.5733 26.4575L17.6408 26.5251L17.7084 26.5927L17.776 26.6603L17.8436 26.7279L17.9113 26.7956L17.979 26.8633L18.0468 26.931L18.1145 26.9988L18.1824 27.0666L18.2502 27.1345L18.3181 27.2024L18.386 27.2703L18.454 27.3383L18.7262 27.6105ZM19.6663 28.5506L17.8835 30.3333L19.6663 32.1161L21.4491 30.3333L21.421 30.3052L21.3508 30.2351L21.2807 30.165L21.2107 30.0949L21.1407 30.025L21.0708 29.9551L21.0009 29.8852L20.9312 29.8154L20.8614 29.7457L20.7918 29.676L20.7221 29.6064L20.6526 29.5369L20.5831 29.4674L20.5137 29.3979L20.4443 29.3285L20.3749 29.2592L20.3057 29.1899L20.2365 29.1207L20.1673 29.0516L20.0982 28.9825L19.8222 28.7065L19.6663 28.5506ZM14.3329 28.5506L16.1157 30.3333L14.3329 32.1161L14.3073 32.0905L14.2755 32.0587L14.2437 32.0268L14.2119 31.9951L14.1802 31.9633L14.1485 31.9317L14.1168 31.9L14.0852 31.8684L14.0536 31.8368L14.0221 31.8053L13.9906 31.7738L13.9591 31.7423L13.9277 31.7109L13.8963 31.6795L13.865 31.6482L13.8337 31.6168L13.8024 31.5856L13.7712 31.5543L13.74 31.5231L13.7088 31.492L13.6777 31.4608L13.6466 31.4297L13.6155 31.3987L13.5845 31.3676L13.5535 31.3367L13.5225 31.3057L13.4916 31.2748L13.4607 31.2439L13.4299 31.213L13.399 31.1822L13.3682 31.1514L13.3375 31.1207L13.3068 31.0899L13.2761 31.0592L13.2454 31.0286L13.2148 30.998L13.1842 30.9674L13.1536 30.9368L13.1231 30.9063L13.0926 30.8758L13.0621 30.8453L13.0317 30.8149L13.0013 30.7844L12.9709 30.7541L12.9405 30.7237L12.9102 30.6934L12.8799 30.6631L12.8497 30.6328L12.8194 30.6026L12.7892 30.5724L12.759 30.5422L12.7289 30.5121L12.6988 30.4819L12.6687 30.4518L12.6386 30.4218L12.6086 30.3917L12.5785 30.3617L12.5502 30.3333L14.3329 28.5506ZM7.24493 14.3614L7.21682 14.3333L8.99961 12.5506L10.7824 14.3333L8.99961 16.1161L8.98129 16.0978L8.84363 15.9601L8.56771 15.6842L8.4986 15.6151L8.42943 15.5459L8.36021 15.4767L8.29094 15.4075L8.01329 15.1298L7.73473 14.8512L7.66494 14.7815L7.59509 14.7116L7.52518 14.6417L7.45521 14.5717L7.38518 14.5017L7.31509 14.4316L7.24493 14.3614ZM6.33294 13.4494L8.11572 11.6667L6.33294 9.88388L4.55016 11.6667L4.59957 11.7161L4.67246 11.789L4.74527 11.8618L4.81799 11.9345L4.89063 12.0071L4.96319 12.0797L5.03567 12.1522L5.10806 12.2246L5.18038 12.2969L5.25261 12.3691L5.32476 12.4413L5.39684 12.5133L5.46884 12.5853L5.54075 12.6573L5.6126 12.7291L5.68436 12.8009L5.75605 12.8726L5.82766 12.9442L5.8992 13.0157L5.97066 13.0872L6.04205 13.1586L6.18461 13.3011L6.25578 13.3723L6.32689 13.4434L6.33294 13.4494ZM11.6663 13.4495L9.88349 11.6667L11.6663 9.88388L13.4491 11.6667L11.6663 13.4495ZM8.99961 10.7828L10.7824 9L8.99961 7.21722L7.21682 9L8.99961 10.7828ZM14.3329 10.7828L12.5502 9L14.3329 7.21722L14.373 7.25725L14.4432 7.32752L14.5134 7.39771L15.624 8.50827L15.6927 8.57693L15.7612 8.64551L15.8297 8.71401L15.8981 8.78242L15.9665 8.85075L16.0347 8.91899L16.1029 8.98716L16.1157 9L14.3329 10.7828ZM11.6663 8.11612L13.4491 6.33333L13.3789 6.26319L13.2353 6.11958L13.0913 5.97556L13.0191 5.90339L12.9468 5.83112L12.8745 5.75874L12.802 5.68626L12.7294 5.61367L12.6567 5.54098L12.5839 5.46817L12.511 5.39526L12.438 5.32224L12.3648 5.24911L12.2916 5.17588L12.2183 5.10253L12.1448 5.02907L12.0712 4.9555L11.9975 4.88182L11.9237 4.80802L11.8498 4.73412L11.7758 4.6601L11.7017 4.58596L11.6663 4.55055L9.88349 6.33333L11.6663 8.11612ZM15.2569 6.37336L15.2168 6.33333L16.9996 4.55055L18.7824 6.33333L16.9996 8.11612L16.9868 8.10328L16.9186 8.03511L16.8504 7.96686L16.782 7.89853L16.7136 7.83012L16.6451 7.76163L16.5765 7.69305L16.5079 7.62438L16.4391 7.55563L16.3703 7.4868L16.3014 7.41788L16.2324 7.34887L15.9555 7.07196L15.886 7.00251L15.8165 6.93297L15.7468 6.86334L15.6771 6.79362L15.6073 6.72381L15.5374 6.65391L15.4674 6.58391L15.3973 6.51382L15.3271 6.44364L15.2569 6.37336ZM14.3329 5.44945L16.1157 3.66667L14.3329 1.88388L12.5502 3.66667L12.5856 3.70208L12.6597 3.77621L12.7337 3.85023L12.8076 3.92414L12.8814 3.99793L12.9551 4.07161L13.0287 4.14519L13.1021 4.21864L13.3949 4.51138L13.4678 4.58429L13.5406 4.65709L13.6133 4.72979L13.6859 4.80238L13.7584 4.87486L13.8307 4.94724L13.903 5.01951L13.9752 5.09167L14.0472 5.16374L14.1192 5.23569L14.191 5.30755L14.2628 5.3793L14.3329 5.44945ZM19.6663 5.44945L17.8835 3.66667L19.6663 1.88388L21.4491 3.66667L19.6663 5.44945ZM10.7274 3.61163L10.7824 3.66667L8.99961 5.44945L7.21682 3.66667L8.99961 1.88388L9.03119 1.91546L9.10964 1.99391L9.18796 2.07223L9.26614 2.15042L9.3442 2.22848L9.42212 2.3064L9.49992 2.3842L9.57758 2.46186L9.65512 2.5394L9.73253 2.6168L9.80981 2.69408L9.88696 2.77123L9.96398 2.84826L10.0409 2.92516L10.1177 3.00193L10.1943 3.07857L10.2708 3.1551L10.3472 3.23149L10.4235 3.30777L10.4996 3.38392L10.5757 3.45994L10.6516 3.53585L10.7274 3.61163ZM6.33294 4.55055L8.11572 6.33333L6.33294 8.11612L4.55016 6.33333L6.33294 4.55055Z" fill="#C4C4C4"/>
    <path d="M32.2767 0.5H1.72384C1.03533 0.5 0.53722 1.18033 0.778134 1.84268C1.74215 4.49308 5.17715 14.296 5.83594 21.0485C6.21425 24.9262 5.95779 30.6769 5.86408 32.4445C5.83361 33.0193 6.29147 33.5 6.86567 33.5H27.1348C27.709 33.5 28.1669 33.0193 28.1364 32.4445C28.0427 30.6769 27.7862 24.9262 28.1645 21.0485C28.8233 14.296 32.2583 4.49308 33.2224 1.84268C33.4633 1.18033 32.9652 0.5 32.2767 0.5Z" stroke="#C4C4C4"/>
</svg>